<svg width="960" height="540" viewBox="0 0 960 540" fill="none" xmlns="http://www.w3.org/2000/svg">
  <defs>
    <linearGradient id="bg" x1="74" y1="48" x2="860" y2="500" gradientUnits="userSpaceOnUse">
      <stop stop-color="#07131F"/>
      <stop offset="0.56" stop-color="#0B2031"/>
      <stop offset="1" stop-color="#07101A"/>
    </linearGradient>
    <linearGradient id="wall" x1="480" y1="70" x2="480" y2="370" gradientUnits="userSpaceOnUse">
      <stop stop-color="#0B1C2A"/>
      <stop offset="1" stop-color="#10263B"/>
    </linearGradient>
    <linearGradient id="floor" x1="480" y1="330" x2="480" y2="492" gradientUnits="userSpaceOnUse">
      <stop stop-color="#0B1722"/>
      <stop offset="1" stop-color="#09111A"/>
    </linearGradient>
    <linearGradient id="monitor" x1="0" y1="0" x2="250" y2="130" gradientUnits="userSpaceOnUse">
      <stop stop-color="#071E2E"/>
      <stop offset="1" stop-color="#0A3149"/>
    </linearGradient>
    <linearGradient id="cyanGlow" x1="0" y1="0" x2="1" y2="1">
      <stop stop-color="#72F7FF"/>
      <stop offset="1" stop-color="#12B8FF"/>
    </linearGradient>
    <linearGradient id="pinkGlow" x1="0" y1="0" x2="1" y2="1">
      <stop stop-color="#FF68C8"/>
      <stop offset="1" stop-color="#C553FF"/>
    </linearGradient>
    <linearGradient id="guitarBody" x1="0" y1="0" x2="1" y2="1">
      <stop stop-color="#FFB15E"/>
      <stop offset="1" stop-color="#FF6D4D"/>
    </linearGradient>
    <filter id="cyanShadow" x="-30%" y="-30%" width="160%" height="160%">
      <feDropShadow dx="0" dy="0" stdDeviation="10" flood-color="#26D9FF" flood-opacity="0.35"/>
    </filter>
    <filter id="pinkShadow" x="-30%" y="-30%" width="160%" height="160%">
      <feDropShadow dx="0" dy="0" stdDeviation="12" flood-color="#D15BFF" flood-opacity="0.32"/>
    </filter>
    <filter id="softShadow" x="-20%" y="-20%" width="140%" height="140%">
      <feDropShadow dx="0" dy="16" stdDeviation="20" flood-color="#02060C" flood-opacity="0.45"/>
    </filter>
    <clipPath id="codeClip">
      <rect x="0" y="0" width="250" height="130" rx="12"/>
    </clipPath>
    <clipPath id="miniClip">
      <rect x="0" y="0" width="162" height="96" rx="12"/>
    </clipPath>
  </defs>

  <rect x="18" y="18" width="924" height="504" rx="30" fill="url(#bg)"/>
  <rect x="48" y="48" width="864" height="292" rx="24" fill="url(#wall)"/>
  <rect x="48" y="340" width="864" height="152" rx="0 0 24 24" fill="url(#floor)"/>

  <g opacity="0.55">
    <path d="M110 104H272" stroke="#153A51" stroke-width="2"/>
    <path d="M130 132H312" stroke="#143449" stroke-width="2"/>
    <path d="M646 112H822" stroke="#173D59" stroke-width="2"/>
    <path d="M622 144H840" stroke="#143246" stroke-width="2"/>
  </g>

  <g opacity="0.24">
    <circle cx="146" cy="96" r="84" fill="#0CC8FF"/>
    <circle cx="822" cy="114" r="98" fill="#A44CFF"/>
  </g>

  <g filter="url(#cyanShadow)">
    <rect x="116" y="94" width="250" height="150" rx="16" fill="#081828" stroke="#1EE5FF" stroke-opacity="0.7" stroke-width="2"/>
    <rect x="132" y="110" width="218" height="118" rx="12" fill="url(#monitor)"/>
    <g transform="translate(132 110)" clip-path="url(#codeClip)">
      <g opacity="0.92">
        <animateTransform attributeName="transform" type="translate" values="0 0;0 -54;0 0" dur="8s" repeatCount="indefinite"/>
        <rect x="18" y="18" width="68" height="6" rx="3" fill="#72F7FF"/>
        <rect x="96" y="18" width="38" height="6" rx="3" fill="#FF68C8"/>
        <rect x="18" y="36" width="126" height="5" rx="2.5" fill="#8AD7FF" opacity="0.84"/>
        <rect x="152" y="36" width="38" height="5" rx="2.5" fill="#79FAE2" opacity="0.92"/>
        <rect x="18" y="54" width="92" height="5" rx="2.5" fill="#FF8ADE" opacity="0.8"/>
        <rect x="118" y="54" width="80" height="5" rx="2.5" fill="#75D9FF" opacity="0.86"/>
        <rect x="18" y="72" width="154" height="5" rx="2.5" fill="#7CEEFF" opacity="0.88"/>
        <rect x="182" y="72" width="28" height="5" rx="2.5" fill="#D580FF" opacity="0.86"/>
        <rect x="18" y="90" width="60" height="5" rx="2.5" fill="#86D4FF" opacity="0.84"/>
        <rect x="88" y="90" width="122" height="5" rx="2.5" fill="#FF77D1" opacity="0.82"/>
        <rect x="18" y="108" width="116" height="5" rx="2.5" fill="#7CFFD5" opacity="0.86"/>
        <rect x="142" y="108" width="48" height="5" rx="2.5" fill="#72C4FF" opacity="0.78"/>
        <rect x="18" y="126" width="160" height="5" rx="2.5" fill="#7DE7FF" opacity="0.88"/>
        <rect x="18" y="144" width="88" height="5" rx="2.5" fill="#FF7FDB" opacity="0.82"/>
        <rect x="116" y="144" width="94" height="5" rx="2.5" fill="#8CEEFF" opacity="0.86"/>
      </g>
      <rect x="0" y="0" width="250" height="130" fill="url(#monitor)" opacity="0.12">
        <animate attributeName="opacity" values="0.1;0.16;0.1" dur="2.6s" repeatCount="indefinite"/>
      </rect>
    </g>
  </g>

  <g filter="url(#pinkShadow)">
    <rect x="662" y="110" width="190" height="116" rx="16" fill="#0A1521" stroke="#D56EFF" stroke-opacity="0.76" stroke-width="2"/>
    <rect x="676" y="124" width="162" height="88" rx="12" fill="#08131E"/>
    <g transform="translate(676 124)" clip-path="url(#miniClip)">
      <path d="M12 64C34 44 58 42 76 54C94 66 118 60 150 34" stroke="#75EEFF" stroke-width="4" stroke-linecap="round"/>
      <path d="M16 28H66" stroke="#FF7AD6" stroke-width="5" stroke-linecap="round"/>
      <path d="M16 40H98" stroke="#80D6FF" stroke-width="4" stroke-linecap="round" opacity="0.86"/>
      <circle cx="116" cy="42" r="14" stroke="#72F7FF" stroke-width="4"/>
      <path d="M116 34V50" stroke="#72F7FF" stroke-width="3" stroke-linecap="round"/>
      <path d="M108 42H124" stroke="#72F7FF" stroke-width="3" stroke-linecap="round"/>
    </g>
  </g>

  <g filter="url(#softShadow)">
    <path d="M518 342H846C860 342 872 354 872 368V380H492V368C492 354 504 342 518 342Z" fill="#102130"/>
    <rect x="486" y="380" width="390" height="16" rx="8" fill="#09131D"/>
    <rect x="572" y="282" width="204" height="114" rx="14" fill="#091622" stroke="#26D9FF" stroke-opacity="0.64" stroke-width="2"/>
    <rect x="590" y="298" width="168" height="84" rx="10" fill="#071421"/>
    <g transform="translate(590 298)" clip-path="url(#miniClip)">
      <g opacity="0.94">
        <animateTransform attributeName="transform" type="translate" values="0 0;0 -30;0 0" dur="6s" repeatCount="indefinite"/>
        <rect x="14" y="16" width="64" height="5" rx="2.5" fill="#72F7FF"/>
        <rect x="86" y="16" width="28" height="5" rx="2.5" fill="#FF73D6"/>
        <rect x="14" y="32" width="104" height="4" rx="2" fill="#86D5FF" opacity="0.82"/>
        <rect x="14" y="48" width="78" height="4" rx="2" fill="#7DFFD8" opacity="0.86"/>
        <rect x="100" y="48" width="44" height="4" rx="2" fill="#D17DFF" opacity="0.82"/>
        <rect x="14" y="64" width="132" height="4" rx="2" fill="#7DE8FF" opacity="0.88"/>
        <rect x="14" y="80" width="62" height="4" rx="2" fill="#FF83D9" opacity="0.82"/>
      </g>
    </g>
    <rect x="657" y="396" width="34" height="20" rx="7" fill="#143047"/>
    <rect x="618" y="416" width="112" height="10" rx="5" fill="#20384B"/>
  </g>

  <g filter="url(#softShadow)">
    <rect x="566" y="405" width="160" height="30" rx="10" fill="#0F1F2B" stroke="#4ACFFF" stroke-opacity="0.4" stroke-width="1.5"/>
    <g transform="translate(582 414)">
      <rect x="0" y="0" width="16" height="6" rx="2" fill="#366B87"/>
      <rect x="20" y="0" width="16" height="6" rx="2" fill="#366B87"/>
      <rect x="40" y="0" width="16" height="6" rx="2" fill="#366B87"/>
      <rect x="60" y="0" width="16" height="6" rx="2" fill="#366B87"/>
      <rect x="80" y="0" width="16" height="6" rx="2" fill="#366B87"/>
      <rect x="100" y="0" width="16" height="6" rx="2" fill="#366B87"/>
      <rect x="120" y="0" width="16" height="6" rx="2" fill="#366B87"/>
      <rect x="10" y="10" width="16" height="6" rx="2" fill="#4F8BA9"/>
      <rect x="30" y="10" width="16" height="6" rx="2" fill="#4F8BA9"/>
      <rect x="50" y="10" width="16" height="6" rx="2" fill="#4F8BA9"/>
      <rect x="70" y="10" width="16" height="6" rx="2" fill="#4F8BA9"/>
      <rect x="90" y="10" width="16" height="6" rx="2" fill="#4F8BA9"/>
      <rect x="110" y="10" width="16" height="6" rx="2" fill="#4F8BA9"/>
    </g>
  </g>

  <g filter="url(#softShadow)">
    <ellipse cx="752" cy="428" rx="18" ry="12" fill="#0C1722" stroke="#D56EFF" stroke-opacity="0.58" stroke-width="2"/>
    <path d="M752 420V436" stroke="#4BD7FF" stroke-width="2.5" stroke-linecap="round"/>
  </g>

  <g opacity="0.16">
    <path d="M428 364C470 334 522 324 584 328" stroke="#25D7FF" stroke-width="4"/>
    <path d="M426 392C488 360 552 350 620 356" stroke="#C062FF" stroke-width="3"/>
  </g>

  <g transform="translate(254 160)">
    <ellipse cx="154" cy="186" rx="126" ry="44" fill="#07111A"/>
  </g>

  <g transform="translate(252 104)" filter="url(#softShadow)">
    <animateTransform attributeName="transform" type="translate" values="252 104;252 100;252 104" dur="4.2s" repeatCount="indefinite"/>

    <path d="M112 282C104 244 96 214 82 186" stroke="#D8A37E" stroke-width="16" stroke-linecap="round"/>
    <path d="M198 278C210 242 228 214 252 190" stroke="#D8A37E" stroke-width="16" stroke-linecap="round"/>

    <path d="M88 126C104 106 130 94 164 94C206 94 240 112 258 148C270 172 276 202 274 240H92C92 214 88 170 88 126Z" fill="#0D2432"/>
    <path d="M114 138C126 118 146 110 170 110C204 110 230 124 244 146C254 162 260 182 262 208H110C110 178 108 154 114 138Z" fill="#0F3046"/>

    <path d="M154 84C154 54 176 30 206 30C234 30 254 52 254 80C254 94 248 108 238 118C230 126 220 132 206 132C178 132 154 112 154 84Z" fill="#D8A37E"/>
    <path d="M148 80C150 48 174 20 214 20C246 20 272 42 274 86C262 72 250 66 238 64C222 62 212 66 198 74C184 82 170 90 154 104C150 96 148 88 148 80Z" fill="#0D1823"/>
    <path d="M240 88C246 92 252 98 256 104" stroke="#D8A37E" stroke-width="9" stroke-linecap="round"/>

    <ellipse cx="226" cy="86" rx="28" ry="28" fill="none" stroke="#1FDBFF" stroke-opacity="0.72" stroke-width="8"/>
    <path d="M252 86H270" stroke="#1FDBFF" stroke-opacity="0.72" stroke-width="7" stroke-linecap="round"/>

    <path d="M112 154C96 168 84 184 76 204" stroke="#D8A37E" stroke-width="16" stroke-linecap="round"/>
    <path d="M258 154C280 168 296 184 308 202" stroke="#D8A37E" stroke-width="16" stroke-linecap="round"/>

    <g transform="translate(244 166)">
      <animateTransform attributeName="transform" type="rotate" values="-12 28 18;12 28 18;-12 28 18" dur="1s" repeatCount="indefinite"/>
      <path d="M18 0C34 8 50 22 56 40" stroke="#D8A37E" stroke-width="16" stroke-linecap="round"/>
    </g>

    <g transform="translate(42 148)">
      <ellipse cx="126" cy="88" rx="72" ry="54" fill="url(#guitarBody)"/>
      <ellipse cx="126" cy="88" rx="48" ry="36" fill="#17141C"/>
      <circle cx="126" cy="88" r="10" fill="#35424F"/>
      <rect x="182" y="74" width="116" height="18" rx="9" fill="#603B2E"/>
      <rect x="278" y="68" width="16" height="30" rx="6" fill="#42251A"/>
      <path d="M188 80H292" stroke="#FFD8A8" stroke-width="2"/>
      <path d="M188 84H292" stroke="#FFD8A8" stroke-width="2"/>
      <path d="M188 88H292" stroke="#FFD8A8" stroke-width="2"/>
      <path d="M188 92H292" stroke="#FFD8A8" stroke-width="2"/>
      <path d="M188 96H292" stroke="#FFD8A8" stroke-width="2"/>
      <circle cx="156" cy="88" r="6" fill="#0F2130"/>
      <path d="M100 44C118 34 138 32 154 40" stroke="#FFD064" stroke-width="4" stroke-linecap="round" opacity="0.7"/>
    </g>

    <path d="M88 126C106 138 130 148 160 154" stroke="#1DDCFF" stroke-opacity="0.26" stroke-width="3"/>
  </g>

  <g fill="#7CEEFF" opacity="0.82">
    <path d="M346 168C356 154 374 150 382 136C388 156 402 162 406 176C388 174 364 174 346 168Z">
      <animateTransform attributeName="transform" type="translate" values="0 0;0 -10;0 0" dur="3s" repeatCount="indefinite"/>
      <animate attributeName="opacity" values="0;1;0" dur="3s" repeatCount="indefinite"/>
    </path>
    <circle cx="328" cy="196" r="5">
      <animate attributeName="cy" values="196;164;196" dur="2.2s" repeatCount="indefinite"/>
      <animate attributeName="opacity" values="0;1;0" dur="2.2s" repeatCount="indefinite"/>
    </circle>
  </g>

  <g fill="#FF74D5" opacity="0.78">
    <path d="M392 126C402 112 420 108 426 94C432 112 444 118 448 132C432 130 408 130 392 126Z">
      <animateTransform attributeName="transform" type="translate" values="0 0;2 -12;0 0" dur="3.4s" repeatCount="indefinite"/>
      <animate attributeName="opacity" values="0;1;0" dur="3.4s" repeatCount="indefinite"/>
    </path>
  </g>

  <g opacity="0.65">
    <path d="M88 472H278" stroke="#173042" stroke-width="3"/>
    <path d="M712 472H878" stroke="#173042" stroke-width="3"/>
  </g>
</svg>
